<mxfile host="app.diagrams.net" agent="Mozilla/5.0 (Windows NT 10.0; Win64; x64) AppleWebKit/537.36 (KHTML, like Gecko) Chrome/135.0.0.0 Safari/537.36" version="26.2.14">
  <diagram name="Página-1" id="i3XG-5LFAZaPc7fLmrdt">
    <mxGraphModel dx="3452" dy="3136" grid="1" gridSize="10" guides="1" tooltips="1" connect="1" arrows="1" fold="1" page="1" pageScale="1" pageWidth="2000" pageHeight="1600" math="0" shadow="0">
      <root>
        <mxCell id="0" />
        <mxCell id="1" parent="0" />
        <mxCell id="octDAVzb81xytwGA-_7a-1" value="" style="rounded=1;whiteSpace=wrap;html=1;movable=0;resizable=0;rotatable=0;deletable=0;editable=0;locked=1;connectable=0;" vertex="1" parent="1">
          <mxGeometry x="340" y="200" width="1950" height="1230" as="geometry" />
        </mxCell>
        <mxCell id="octDAVzb81xytwGA-_7a-2" value="Caso de Uso - REPEXAME" style="text;html=1;align=center;verticalAlign=middle;whiteSpace=wrap;rounded=0;fontSize=40;" vertex="1" parent="1">
          <mxGeometry x="955" y="230" width="720" height="30" as="geometry" />
        </mxCell>
        <mxCell id="octDAVzb81xytwGA-_7a-3" value="Actor" style="shape=umlActor;verticalLabelPosition=bottom;verticalAlign=top;html=1;outlineConnect=0;" vertex="1" parent="1">
          <mxGeometry x="2370" y="580" width="120" height="200" as="geometry" />
        </mxCell>
        <mxCell id="octDAVzb81xytwGA-_7a-4" value="Actor" style="shape=umlActor;verticalLabelPosition=bottom;verticalAlign=top;html=1;outlineConnect=0;" vertex="1" parent="1">
          <mxGeometry x="130" y="620" width="120" height="200" as="geometry" />
        </mxCell>
        <mxCell id="octDAVzb81xytwGA-_7a-13" value="&lt;font style=&quot;font-size: 18px;&quot;&gt;Criar Exame&lt;/font&gt;" style="ellipse;whiteSpace=wrap;html=1;" vertex="1" parent="1">
          <mxGeometry x="1750" y="510" width="160" height="80" as="geometry" />
        </mxCell>
        <mxCell id="octDAVzb81xytwGA-_7a-24" value="" style="endArrow=none;html=1;rounded=0;" edge="1" parent="1">
          <mxGeometry width="50" height="50" relative="1" as="geometry">
            <mxPoint x="2330" y="350" as="sourcePoint" />
            <mxPoint x="2560" y="470" as="targetPoint" />
          </mxGeometry>
        </mxCell>
        <mxCell id="octDAVzb81xytwGA-_7a-25" value="" style="endArrow=block;dashed=1;endFill=0;endSize=12;html=1;rounded=0;" edge="1" parent="1">
          <mxGeometry width="160" relative="1" as="geometry">
            <mxPoint x="2425" y="180" as="sourcePoint" />
            <mxPoint x="2410" y="330" as="targetPoint" />
          </mxGeometry>
        </mxCell>
        <mxCell id="octDAVzb81xytwGA-_7a-26" value="Extend" style="edgeLabel;html=1;align=center;verticalAlign=middle;resizable=0;points=[];fontSize=15;" vertex="1" connectable="0" parent="octDAVzb81xytwGA-_7a-25">
          <mxGeometry x="-0.0389" y="-1" relative="1" as="geometry">
            <mxPoint as="offset" />
          </mxGeometry>
        </mxCell>
        <mxCell id="octDAVzb81xytwGA-_7a-29" value="" style="endArrow=block;dashed=1;endFill=0;endSize=12;html=1;rounded=0;" edge="1" parent="1">
          <mxGeometry width="160" relative="1" as="geometry">
            <mxPoint x="2200" y="100" as="sourcePoint" />
            <mxPoint x="2310" y="200" as="targetPoint" />
          </mxGeometry>
        </mxCell>
        <mxCell id="octDAVzb81xytwGA-_7a-30" value="Includ" style="edgeLabel;html=1;align=center;verticalAlign=middle;resizable=0;points=[];fontSize=15;" vertex="1" connectable="0" parent="octDAVzb81xytwGA-_7a-29">
          <mxGeometry x="-0.0389" y="-1" relative="1" as="geometry">
            <mxPoint as="offset" />
          </mxGeometry>
        </mxCell>
        <mxCell id="octDAVzb81xytwGA-_7a-41" value="" style="endArrow=block;dashed=1;endFill=0;endSize=12;html=1;rounded=0;" edge="1" parent="1">
          <mxGeometry width="160" relative="1" as="geometry">
            <mxPoint x="800" y="190" as="sourcePoint" />
            <mxPoint x="880" y="20" as="targetPoint" />
          </mxGeometry>
        </mxCell>
        <mxCell id="octDAVzb81xytwGA-_7a-42" value="Includ" style="edgeLabel;html=1;align=center;verticalAlign=middle;resizable=0;points=[];fontSize=15;" vertex="1" connectable="0" parent="octDAVzb81xytwGA-_7a-41">
          <mxGeometry x="-0.0103" y="2" relative="1" as="geometry">
            <mxPoint x="1" as="offset" />
          </mxGeometry>
        </mxCell>
        <mxCell id="octDAVzb81xytwGA-_7a-43" value="" style="endArrow=block;dashed=1;endFill=0;endSize=12;html=1;rounded=0;" edge="1" parent="1">
          <mxGeometry width="160" relative="1" as="geometry">
            <mxPoint x="720" y="140" as="sourcePoint" />
            <mxPoint x="590" y="110" as="targetPoint" />
          </mxGeometry>
        </mxCell>
        <mxCell id="octDAVzb81xytwGA-_7a-44" value="Extend" style="edgeLabel;html=1;align=center;verticalAlign=middle;resizable=0;points=[];fontSize=15;" vertex="1" connectable="0" parent="octDAVzb81xytwGA-_7a-43">
          <mxGeometry x="-0.0103" y="2" relative="1" as="geometry">
            <mxPoint x="1" as="offset" />
          </mxGeometry>
        </mxCell>
        <mxCell id="octDAVzb81xytwGA-_7a-45" value="" style="rounded=0;whiteSpace=wrap;html=1;strokeColor=none;" vertex="1" parent="1">
          <mxGeometry x="2370" y="785" width="120" height="60" as="geometry" />
        </mxCell>
        <mxCell id="octDAVzb81xytwGA-_7a-46" value="&lt;font style=&quot;font-size: 25px;&quot;&gt;Professor&lt;/font&gt;" style="text;html=1;align=center;verticalAlign=middle;whiteSpace=wrap;rounded=0;" vertex="1" parent="1">
          <mxGeometry x="2400" y="790" width="60" height="30" as="geometry" />
        </mxCell>
        <mxCell id="octDAVzb81xytwGA-_7a-47" value="" style="rounded=0;whiteSpace=wrap;html=1;strokeColor=none;" vertex="1" parent="1">
          <mxGeometry x="130" y="820" width="120" height="60" as="geometry" />
        </mxCell>
        <mxCell id="octDAVzb81xytwGA-_7a-48" value="&lt;span style=&quot;font-size: 25px;&quot;&gt;Aluno&lt;/span&gt;" style="text;html=1;align=center;verticalAlign=middle;whiteSpace=wrap;rounded=0;" vertex="1" parent="1">
          <mxGeometry x="160" y="825" width="60" height="30" as="geometry" />
        </mxCell>
        <mxCell id="octDAVzb81xytwGA-_7a-49" value="&lt;font style=&quot;font-size: 18px;&quot;&gt;Realizar Exame&lt;/font&gt;" style="ellipse;whiteSpace=wrap;html=1;" vertex="1" parent="1">
          <mxGeometry x="470" y="920" width="160" height="80" as="geometry" />
        </mxCell>
        <mxCell id="octDAVzb81xytwGA-_7a-50" value="&lt;font style=&quot;font-size: 18px;&quot;&gt;Adicionar Questões&lt;/font&gt;" style="ellipse;whiteSpace=wrap;html=1;" vertex="1" parent="1">
          <mxGeometry x="1550" y="440" width="190" height="90" as="geometry" />
        </mxCell>
        <mxCell id="octDAVzb81xytwGA-_7a-51" value="&lt;font style=&quot;font-size: 18px;&quot;&gt;Dissertativa&lt;/font&gt;" style="ellipse;whiteSpace=wrap;html=1;" vertex="1" parent="1">
          <mxGeometry x="1850" y="310" width="160" height="80" as="geometry" />
        </mxCell>
        <mxCell id="octDAVzb81xytwGA-_7a-52" value="&lt;font style=&quot;font-size: 18px;&quot;&gt;Objetiva&lt;/font&gt;" style="ellipse;whiteSpace=wrap;html=1;" vertex="1" parent="1">
          <mxGeometry x="2010" y="230" width="160" height="80" as="geometry" />
        </mxCell>
        <mxCell id="octDAVzb81xytwGA-_7a-53" value="&lt;font style=&quot;font-size: 18px;&quot;&gt;Corrigir Exame&lt;/font&gt;" style="ellipse;whiteSpace=wrap;html=1;" vertex="1" parent="1">
          <mxGeometry x="2030" y="1090" width="160" height="80" as="geometry" />
        </mxCell>
        <mxCell id="octDAVzb81xytwGA-_7a-54" value="&lt;font style=&quot;font-size: 18px;&quot;&gt;Definir Criterio&lt;/font&gt;" style="ellipse;whiteSpace=wrap;html=1;" vertex="1" parent="1">
          <mxGeometry x="1920" y="900" width="160" height="80" as="geometry" />
        </mxCell>
        <mxCell id="octDAVzb81xytwGA-_7a-55" value="&lt;font style=&quot;font-size: 18px;&quot;&gt;Responder Folha Resposta&lt;/font&gt;" style="ellipse;whiteSpace=wrap;html=1;" vertex="1" parent="1">
          <mxGeometry x="640" y="1030" width="190" height="90" as="geometry" />
        </mxCell>
        <mxCell id="octDAVzb81xytwGA-_7a-56" value="&lt;font style=&quot;font-size: 18px;&quot;&gt;Criar Questão&lt;/font&gt;" style="ellipse;whiteSpace=wrap;html=1;" vertex="1" parent="1">
          <mxGeometry x="2040" y="340" width="160" height="80" as="geometry" />
        </mxCell>
        <mxCell id="octDAVzb81xytwGA-_7a-57" value="&lt;font style=&quot;font-size: 18px;&quot;&gt;Adicionar Alternativas&lt;/font&gt;" style="ellipse;whiteSpace=wrap;html=1;" vertex="1" parent="1">
          <mxGeometry x="1890" y="130" width="190" height="90" as="geometry" />
        </mxCell>
        <mxCell id="octDAVzb81xytwGA-_7a-58" value="&lt;font style=&quot;font-size: 18px;&quot;&gt;Definir Duração Total&lt;/font&gt;" style="ellipse;whiteSpace=wrap;html=1;" vertex="1" parent="1">
          <mxGeometry x="1590" y="600" width="160" height="90" as="geometry" />
        </mxCell>
        <mxCell id="octDAVzb81xytwGA-_7a-59" value="&lt;span style=&quot;font-size: 18px;&quot;&gt;Entregar Menção ao Aluno&lt;/span&gt;" style="ellipse;whiteSpace=wrap;html=1;" vertex="1" parent="1">
          <mxGeometry x="1760" y="1210" width="180" height="90" as="geometry" />
        </mxCell>
        <mxCell id="octDAVzb81xytwGA-_7a-60" value="&lt;font style=&quot;font-size: 18px;&quot;&gt;Criar Folha Resposta&lt;/font&gt;" style="ellipse;whiteSpace=wrap;html=1;" vertex="1" parent="1">
          <mxGeometry x="1830" y="740" width="160" height="80" as="geometry" />
        </mxCell>
        <mxCell id="octDAVzb81xytwGA-_7a-61" value="&lt;font style=&quot;font-size: 18px;&quot;&gt;Receer Menção&lt;/font&gt;" style="ellipse;whiteSpace=wrap;html=1;" vertex="1" parent="1">
          <mxGeometry x="500" y="660" width="160" height="80" as="geometry" />
        </mxCell>
      </root>
    </mxGraphModel>
  </diagram>
</mxfile>
